<svg width="24" height="24" viewBox="0 0 24 24" fill="none" xmlns="http://www.w3.org/2000/svg">
<path d="M7.57346 8.18077C7.12101 7.86405 6.49748 7.97409 6.18077 8.42654C5.86405 8.87899 5.97409 9.50252 6.42654 9.81923L7.57346 8.18077ZM12 12.5L11.4265 13.3192C11.7709 13.5603 12.2291 13.5603 12.5735 13.3192L12 12.5ZM17.5735 9.81923C18.0259 9.50252 18.1359 8.87899 17.8192 8.42654C17.5025 7.97409 16.879 7.86405 16.4265 8.18077L17.5735 9.81923ZM2 17H1H2ZM4 5V4V5ZM20 5V4V5ZM6.42654 9.81923L11.4265 13.3192L12.5735 11.6808L7.57346 8.18077L6.42654 9.81923ZM12.5735 13.3192L17.5735 9.81923L16.4265 8.18077L11.4265 11.6808L12.5735 13.3192ZM3 17V7H1V17H3ZM3 7C3 6.73478 3.10536 6.48043 3.29289 6.29289L1.87868 4.87868C1.31607 5.44129 1 6.20435 1 7H3ZM3.29289 6.29289C3.48043 6.10536 3.73478 6 4 6V4C3.20435 4 2.44129 4.31607 1.87868 4.87868L3.29289 6.29289ZM4 6H20V4H4V6ZM20 6C20.2652 6 20.5196 6.10536 20.7071 6.29289L22.1213 4.87868C21.5587 4.31607 20.7957 4 20 4V6ZM20.7071 6.29289C20.8946 6.48043 21 6.73478 21 7H23C23 6.20435 22.6839 5.44129 22.1213 4.87868L20.7071 6.29289ZM21 7V17H23V7H21ZM21 17C21 17.2652 20.8946 17.5196 20.7071 17.7071L22.1213 19.1213C22.6839 18.5587 23 17.7957 23 17H21ZM20.7071 17.7071C20.5196 17.8946 20.2652 18 20 18V20C20.7957 20 21.5587 19.6839 22.1213 19.1213L20.7071 17.7071ZM20 18H4V20H20V18ZM4 18C3.73478 18 3.48043 17.8946 3.29289 17.7071L1.87868 19.1213C2.44129 19.6839 3.20435 20 4 20V18ZM3.29289 17.7071C3.10536 17.5196 3 17.2652 3 17H1C1 17.7956 1.31607 18.5587 1.87868 19.1213L3.29289 17.7071Z" fill="#483E89"/>
</svg>
