<svg width="24" height="24" viewBox="0 0 24 24" fill="none" xmlns="http://www.w3.org/2000/svg">
<rect width="24" height="24" rx="12" fill="#EDEDED"/>
<path d="M20.0006 11.9989C19.9999 7.74331 16.6677 4.23308 12.4179 4.01107C8.16811 3.78906 4.48832 6.93299 4.04423 11.1654C3.60015 15.3977 6.54723 19.237 10.7506 19.9019V14.3114H8.71956V11.9989H10.7506V10.2364C10.7506 8.23141 11.9451 7.12391 13.7721 7.12391C14.3721 7.13223 14.9707 7.18437 15.5631 7.27991V9.24891H14.5541C14.2058 9.20265 13.8553 9.31731 13.6018 9.56049C13.3482 9.80367 13.2189 10.149 13.2506 10.4989V11.9989H15.4696L15.1146 14.3114H13.2506V19.9019C17.1384 19.2869 20.0012 15.9351 20.0006 11.9989Z" fill="#3975EB"/>
</svg>
