<svg width="24" height="24" viewBox="0 0 24 24" fill="none" xmlns="http://www.w3.org/2000/svg">
<rect width="24" height="24" rx="12" fill="#EDEDED"/>
<path d="M12.1227 7.27224C13.2504 7.27155 14.3421 7.66399 15.2041 8.38002L17.6188 6.11573C15.7394 4.4093 13.1531 3.67496 10.6396 4.13409C8.1261 4.59321 5.97937 6.19209 4.84656 8.44874L7.56877 10.5149C8.21985 8.58159 10.0542 7.27543 12.1227 7.27224Z" fill="#D94F3D"/>
<path d="M7.32292 11.9986C7.3236 11.4942 7.40663 10.9933 7.56882 10.5149L4.8466 8.44873C3.7178 10.6848 3.7178 13.3124 4.8466 15.5485L7.56882 13.4823C7.40663 13.0039 7.3236 12.5029 7.32292 11.9986Z" fill="#F2C042"/>
<path d="M19.9132 10.5443H12.1597V13.8164H16.5533C16.2919 14.7416 15.6931 15.5393 14.8715 16.0567L17.5727 18.1072C19.2988 16.5817 20.313 14.1011 19.9132 10.5443Z" fill="#5085ED"/>
<path d="M14.8703 16.0567C14.0356 16.5272 13.0839 16.7587 12.1227 16.7249C10.0542 16.7218 8.21985 15.4156 7.56877 13.4823L4.84656 15.5484C6.21805 18.2708 9.03648 19.994 12.1227 19.997C14.1136 20.0503 16.0542 19.377 17.5715 18.1065L14.8703 16.0567Z" fill="#57A75C"/>
</svg>
