<svg width="24" height="24" viewBox="0 0 24 24" fill="none" xmlns="http://www.w3.org/2000/svg">
<rect width="24" height="24" rx="12" fill="#EDEDED"/>
<path d="M19.0421 14.649C18.6582 15.4996 18.4747 15.8786 17.9802 16.63C17.2914 17.6794 16.3194 18.9863 15.1149 18.9972C14.0448 19.007 13.7699 18.3012 12.3176 18.3094C10.8653 18.3176 10.5625 19.0102 9.49251 18.9999C8.28799 18.989 7.36773 17.809 6.67834 16.7591C4.75068 13.8251 4.5492 10.3815 5.73793 8.55129C6.58305 7.24985 7.91608 6.48913 9.1696 6.48913C10.4455 6.48913 11.2481 7.18886 12.3034 7.18886C13.3271 7.18886 13.9506 6.48804 15.4263 6.48804C16.5416 6.48804 17.7232 7.0952 18.5656 8.14452C15.807 9.6567 16.2551 13.5953 19.0421 14.649Z" fill="black"/>
<path d="M14.4632 4.6519C14.9995 3.96415 15.4063 2.99269 15.2582 2C14.3826 2.0599 13.3588 2.61696 12.7604 3.34337C12.2175 4.00226 11.7693 4.97971 11.9436 5.92993C12.8992 5.95988 13.8887 5.3892 14.4632 4.6519Z" fill="black"/>
</svg>
